<svg xmlns="http://www.w3.org/2000/svg" viewBox="0 0 46 59" width="46" height="59">
	<style>
		tspan { white-space:pre }
		.shp0 { fill: #000000 } 
	</style>
	<g id="3 - program section">
		<g id="program section">
			<g id="block 3">
				<g id="icon">
					<path id="Forma 1" class="shp0" d="M42.27 6.44L41.75 6.44L41.75 5.55C41.75 3.67 40.25 2.15 38.48 2.15C38.48 2.15 38.47 2.15 38.47 2.15L7.61 0C5.75 0 4.24 1.53 4.24 3.4L4.24 6.44L3.73 6.44C1.67 6.44 0 8.13 0 10.21L0 15.02C0 17.1 1.67 18.79 3.73 18.79L3.85 18.79L7.46 55.6C7.46 57.47 8.97 59 10.82 59L35.23 59C35.7 59 36.14 58.9 36.54 58.73C37.75 58.22 38.6 57.03 38.59 55.72L42.21 18.79L42.27 18.79C44.33 18.79 46 17.1 46 15.02L46 10.21C46 8.13 44.33 6.44 42.27 6.44ZM6.73 3.4C6.73 2.91 7.12 2.51 7.53 2.51L38.39 4.66C38.87 4.66 39.27 5.06 39.27 5.55L39.27 6.44L6.73 6.44L6.73 3.4ZM38.7 28.78L32.02 29.99C29.76 27.32 26.53 25.81 23.04 25.81C19.55 25.81 16.32 27.32 14.06 29.99L7.36 28.78L6.35 18.79L39.71 18.79L38.7 28.78ZM38.48 31.37L37.52 41.25L30.99 40.03L30.52 40.65C28.73 43.06 26 44.44 23.04 44.44C20.08 44.44 17.35 43.06 15.56 40.65L15.1 40.03L8.54 41.25L7.58 31.37L15.1 32.73L15.56 32.11C17.35 29.7 20.08 28.32 23.04 28.32C26 28.32 28.73 29.7 30.52 32.11L30.98 32.73L38.48 31.37ZM35.23 56.49L10.82 56.49C10.7 56.49 10.59 56.46 10.48 56.41C10.17 56.27 9.94 55.93 9.94 55.47L9.92 55.31L8.81 43.75L14.06 42.78C16.32 45.44 19.55 46.95 23.04 46.95C26.53 46.95 29.76 45.44 32.02 42.78L37.25 43.75L36.11 55.6C36.11 56.08 35.71 56.49 35.23 56.49ZM43.51 15.02C43.51 15.71 42.95 16.27 42.27 16.27L3.73 16.27C3.04 16.27 2.49 15.71 2.49 15.02L2.49 10.21C2.49 9.51 3.04 8.95 3.73 8.95L4.24 8.95L41.75 8.95L42.27 8.95C42.95 8.95 43.51 9.51 43.51 10.21L43.51 15.02ZM23 30.16C19.23 30.16 16.16 32.98 16.16 36.44C16.16 39.91 19.23 42.72 23 42.72C26.77 42.72 29.84 39.91 29.84 36.44C29.84 32.98 26.77 30.16 23 30.16ZM23 40.21C20.6 40.21 18.65 38.52 18.65 36.44C18.65 34.36 20.6 32.67 23 32.67C25.4 32.67 27.35 34.36 27.35 36.44C27.35 38.52 25.4 40.21 23 40.21Z" />
				</g>
			</g>
		</g>
	</g>
</svg>