<svg xmlns="http://www.w3.org/2000/svg" viewBox="0 0 56 56" width="56" height="56">
	<style>
		tspan { white-space:pre }
		.shp0 { fill: #000000 } 
	</style>
	<g id="3 - program section">
		<g id="program section">
			<g id="block 4">
				<g id="icon">
					<path id="Forma 1" class="shp0" d="M35.22 35.44C34.61 35.44 34.12 35.93 34.12 36.53C34.12 39.91 31.38 42.66 28 42.66C24.62 42.66 21.87 39.91 21.87 36.53C21.87 33.15 24.62 30.41 28 30.41C28.6 30.41 29.09 29.92 29.09 29.31C29.09 28.71 28.6 28.22 28 28.22C23.42 28.22 19.69 31.95 19.69 36.53C19.69 41.12 23.42 44.84 28 44.84C32.58 44.84 36.31 41.12 36.31 36.53C36.31 35.93 35.82 35.44 35.22 35.44ZM28 32.81C25.95 32.81 24.28 34.48 24.28 36.53C24.28 38.58 25.95 40.25 28 40.25C30.05 40.25 31.72 38.58 31.72 36.53C31.72 34.48 30.05 32.81 28 32.81ZM28 38.06C27.16 38.06 26.47 37.38 26.47 36.53C26.47 35.69 27.16 35 28 35C28.84 35 29.53 35.69 29.53 36.53C29.53 37.38 28.84 38.06 28 38.06ZM54.91 44.41C54.3 44.41 53.81 44.9 53.81 45.5L53.81 49C53.81 51.65 51.65 53.81 49 53.81L7 53.81C4.35 53.81 2.19 51.65 2.19 49L2.19 32.81L15.64 32.81C15.28 34 15.09 35.25 15.09 36.53C15.09 43.65 20.88 49.44 28 49.44C35.12 49.44 40.91 43.65 40.91 36.53C40.91 35.25 40.72 34 40.36 32.81L53.81 32.81L53.81 35.93C53.81 36.53 54.3 37.02 54.91 37.02C55.51 37.02 56 36.53 56 35.93L56 24.06C56 20.2 52.86 17.06 49 17.06L41.63 17.06L40.78 13.84C40.19 11.62 38.17 10.06 35.87 10.06L21.2 10.06C18.9 10.06 16.89 11.62 16.3 13.84L15.45 17.06L14.15 17.06L14.15 16.37C14.15 14.58 12.7 13.13 10.91 13.13L9.32 13.13C7.53 13.13 6.07 14.58 6.07 16.37L6.07 17.13C2.65 17.58 0 20.52 0 24.06L0 49C0 52.86 3.14 56 7 56L49 56C52.86 56 56 52.86 56 49L56 45.5C56 44.9 55.51 44.41 54.91 44.41ZM18.41 14.4C18.75 13.13 19.9 12.25 21.2 12.25L35.87 12.25C37.18 12.25 38.33 13.13 38.66 14.4L39.37 17.06L17.71 17.06L18.41 14.4ZM8.26 16.37C8.26 15.79 8.74 15.31 9.32 15.31L10.91 15.31C11.49 15.31 11.96 15.79 11.96 16.37L11.96 17.06L8.26 17.06L8.26 16.37ZM2.19 24.06C2.19 21.41 4.35 19.25 7 19.25L7.17 19.25L13.06 19.25L16.29 19.25L40.79 19.25L49 19.25C51.65 19.25 53.81 21.41 53.81 24.06L53.81 30.63L39.48 30.63C38.13 28 35.9 25.87 33.06 24.66C32.51 24.42 31.87 24.68 31.63 25.23C31.39 25.79 31.65 26.43 32.21 26.67C36.16 28.36 38.72 32.23 38.72 36.53C38.72 42.44 33.91 47.25 28 47.25C22.09 47.25 17.28 42.44 17.28 36.53C17.28 32.34 19.75 28.51 23.56 26.77C24.11 26.52 24.35 25.87 24.1 25.32C23.85 24.77 23.2 24.53 22.65 24.78C19.97 26.01 17.84 28.09 16.53 30.63L2.19 30.63L2.19 24.06ZM10.11 21.66C8.3 21.66 6.83 23.13 6.83 24.94C6.83 26.75 8.3 28.22 10.11 28.22C11.92 28.22 13.39 26.75 13.39 24.94C13.39 23.13 11.92 21.66 10.11 21.66ZM10.11 26.03C9.51 26.03 9.02 25.54 9.02 24.94C9.02 24.33 9.51 23.84 10.11 23.84C10.72 23.84 11.21 24.33 11.21 24.94C11.21 25.54 10.72 26.03 10.11 26.03ZM47.56 23.84L44.73 23.84C44.12 23.84 43.64 24.33 43.64 24.94C43.64 25.54 44.12 26.03 44.73 26.03L47.56 26.03C48.16 26.03 48.65 25.54 48.65 24.94C48.65 24.33 48.16 23.84 47.56 23.84ZM27.99 0C27.38 0 26.89 0.49 26.89 1.09L26.89 6.36C26.89 6.96 27.38 7.45 27.99 7.45C28.59 7.45 29.08 6.96 29.08 6.36L29.08 1.09C29.08 0.49 28.59 0 27.99 0ZM38.47 4.63C38.04 4.2 37.35 4.2 36.92 4.63L34.78 6.78C34.35 7.2 34.35 7.9 34.78 8.32C34.99 8.54 35.27 8.64 35.55 8.64C35.83 8.64 36.11 8.54 36.32 8.32L38.47 6.18C38.9 5.75 38.9 5.06 38.47 4.63ZM21.24 6.81L19.09 4.67C18.66 4.24 17.97 4.24 17.54 4.67C17.11 5.09 17.11 5.79 17.54 6.21L19.69 8.36C19.9 8.57 20.18 8.68 20.46 8.68C20.74 8.68 21.02 8.57 21.24 8.36C21.66 7.93 21.66 7.24 21.24 6.81ZM28.77 23.95C28.57 23.74 28.29 23.63 28 23.63C27.71 23.63 27.43 23.74 27.23 23.95C27.02 24.15 26.91 24.43 26.91 24.72C26.91 25.01 27.02 25.29 27.23 25.49C27.43 25.7 27.71 25.81 28 25.81C28.29 25.81 28.57 25.7 28.77 25.49C28.98 25.29 29.09 25.01 29.09 24.72C29.09 24.43 28.98 24.15 28.77 23.95ZM55.68 40.08C55.47 39.87 55.19 39.76 54.91 39.76C54.62 39.76 54.34 39.87 54.13 40.08C53.93 40.28 53.81 40.56 53.81 40.85C53.81 41.14 53.93 41.42 54.13 41.62C54.34 41.83 54.62 41.95 54.91 41.95C55.19 41.95 55.47 41.83 55.68 41.62C55.88 41.42 56 41.14 56 40.85C56 40.56 55.88 40.28 55.68 40.08Z" />
				</g>
			</g>
		</g>
	</g>
</svg>