<svg xmlns="http://www.w3.org/2000/svg" viewBox="0 0 61 60" width="61" height="60">
	<style>
		tspan { white-space:pre }
		.shp0 { fill: #000000 } 
	</style>
	<g id="3 - program section">
		<g id="program section">
			<g id="block 2">
				<g id="открыть спойлер">
					<path id="Shape 1" class="shp0" d="M59.77 1.22C59.71 0.7 59.3 0.29 58.78 0.23C54.11 -0.35 49.29 0.16 44.85 1.68C40.4 3.2 36.29 5.76 32.96 9.07L25.37 16.63L14.42 18.03C14.17 18.07 13.94 18.18 13.76 18.36L3.2 28.87C2.9 29.17 2.79 29.61 2.91 30.01C3.04 30.42 3.38 30.72 3.79 30.79L11.78 32.26L13.35 33.83L10.01 35.63C9.69 35.8 9.48 36.11 9.42 36.46C9.37 36.82 9.49 37.17 9.75 37.43L22.42 50.04C22.63 50.26 22.92 50.38 23.22 50.38C23.27 50.38 23.33 50.37 23.38 50.36C23.74 50.31 24.05 50.1 24.22 49.78L26.03 46.46L27.6 48.02L29.08 55.97C29.16 56.39 29.46 56.72 29.86 56.85C29.97 56.88 30.09 56.9 30.2 56.9C30.5 56.9 30.79 56.78 31 56.57L41.57 46.05C41.74 45.87 41.86 45.64 41.89 45.39L43.3 34.48L50.89 26.92C54.22 23.61 56.79 19.52 58.31 15.09C59.84 10.66 60.35 5.86 59.77 1.22ZM11.95 29.99L6.34 28.95L15.09 20.23L22.74 19.25L11.95 29.99ZM22.95 47.37L12.44 36.9L15.03 35.5L24.35 44.78L22.95 47.37ZM39.68 44.72L30.92 53.44L29.88 47.85L40.67 37.11L39.68 44.72ZM49.28 25.32L28.66 45.86L13.95 31.21L34.57 10.67C37.57 7.69 41.25 5.37 45.25 3.95C45.76 6.59 47.06 9.04 48.99 10.96C50.92 12.89 53.38 14.18 56.04 14.69C54.61 18.67 52.28 22.34 49.28 25.32ZM56.72 12.51C54.42 12.12 52.27 11.02 50.6 9.36C48.93 7.7 47.83 5.56 47.43 3.26C50.73 2.38 54.2 2.07 57.61 2.38C57.92 5.77 57.61 9.23 56.72 12.51ZM33.46 16.7C30.77 19.38 30.77 23.74 33.46 26.43C34.81 27.77 36.58 28.44 38.35 28.44C40.12 28.44 41.89 27.77 43.23 26.43L43.23 26.43C45.93 23.75 45.93 19.38 43.23 16.7C40.54 14.02 36.16 14.02 33.46 16.7ZM41.62 24.82C39.82 26.62 36.88 26.62 35.07 24.82C33.27 23.03 33.27 20.1 35.07 18.3C35.98 17.4 37.16 16.95 38.35 16.95C39.53 16.95 40.72 17.4 41.62 18.3C43.43 20.1 43.43 23.03 41.62 24.82ZM14.79 45.23C14.35 44.79 13.63 44.79 13.18 45.23L3.41 54.96C2.97 55.41 2.97 56.12 3.41 56.57C3.63 56.79 3.93 56.9 4.22 56.9C4.51 56.9 4.8 56.79 5.02 56.57L14.79 46.84C15.24 46.39 15.24 45.68 14.79 45.23ZM16.3 48.33L11.89 52.72C11.45 53.16 11.45 53.88 11.89 54.32C12.12 54.54 12.41 54.65 12.7 54.65C12.99 54.65 13.28 54.54 13.5 54.32L17.91 49.94C18.35 49.5 18.35 48.78 17.91 48.33C17.46 47.89 16.74 47.89 16.3 48.33ZM10.35 54.72C9.88 54.72 9.44 55.03 9.28 55.47C9.12 55.93 9.27 56.45 9.65 56.75C10.03 57.05 10.6 57.07 11 56.79C11.43 56.49 11.61 55.91 11.4 55.42C11.23 55 10.8 54.72 10.35 54.72ZM11.4 55.42C11.43 55.49 11.38 55.35 11.4 55.42L11.4 55.42ZM7.13 57.46L6.53 58.06C6.08 58.51 6.08 59.22 6.53 59.67C6.75 59.89 7.04 60 7.33 60C7.62 60 7.91 59.89 8.14 59.67L8.74 59.06C9.19 58.62 9.19 57.9 8.74 57.46C8.3 57.02 7.58 57.02 7.13 57.46ZM6.31 47.48C5.87 47.04 5.14 47.04 4.7 47.48L0.3 51.86C-0.15 52.31 -0.15 53.02 0.3 53.47C0.52 53.69 0.81 53.8 1.1 53.8C1.39 53.8 1.69 53.69 1.91 53.47L6.31 49.08C6.75 48.64 6.75 47.92 6.31 47.48ZM8.13 47.04C8.59 46.93 8.94 46.53 8.98 46.06C9.03 45.59 8.78 45.14 8.36 44.93C7.92 44.71 7.37 44.8 7.03 45.16C6.67 45.54 6.61 46.13 6.9 46.57C6.89 46.56 6.89 46.55 6.9 46.57C6.92 46.6 6.92 46.59 6.91 46.58C7.18 46.97 7.67 47.16 8.13 47.04ZM11.07 44.34L11.68 43.74C12.12 43.29 12.12 42.58 11.68 42.13C11.23 41.69 10.51 41.69 10.07 42.13L9.46 42.74C9.02 43.18 9.02 43.9 9.46 44.34C9.68 44.56 9.98 44.67 10.27 44.67C10.56 44.67 10.85 44.56 11.07 44.34Z" />
				</g>
			</g>
		</g>
	</g>
</svg>