<svg xmlns="http://www.w3.org/2000/svg" viewBox="0 0 55 49" width="55" height="49">
	<style>
		tspan { white-space:pre }
		.shp0 { fill: #000000 } 
	</style>
	<g id="3 - program section">
		<g id="program section">
			<g id="block 5">
				<g id="icon">
					<path id="Shape 1" class="shp0" d="M48.29 11.67L48.29 2.75C48.29 1.76 47.79 0.88 46.95 0.38C46.1 -0.12 45.09 -0.13 44.23 0.36C36.07 4.96 27.18 7.65 17.83 8.35C17.76 8.36 9.3 8.4 9.3 8.4C7.18 8.4 5.42 10.01 5.18 12.09L3.45 12.09C1.55 12.09 0 13.65 0 15.57L0 23.2C0 25.12 1.55 26.68 3.45 26.68L5.18 26.68C5.36 28.18 6.31 29.43 7.63 30.02L13.8 47.21C14.19 48.28 15.21 49 16.34 49L22.53 49C23.41 49 24.24 48.57 24.74 47.84C25.24 47.11 25.37 46.18 25.07 45.35L19.76 30.59C28.41 31.49 36.63 34.12 44.23 38.41C44.65 38.65 45.11 38.77 45.57 38.77C46.04 38.77 46.52 38.64 46.95 38.38C47.79 37.89 48.29 37 48.29 36.02L48.29 27.09C52.07 26.6 55 23.33 55 19.38C55 15.44 52.07 12.17 48.29 11.67ZM5.15 24L3.45 24C3.01 24 2.66 23.64 2.66 23.2L2.66 15.57C2.66 15.13 3.01 14.77 3.45 14.77L5.15 14.77L5.15 24ZM8.69 27.56C8.17 27.33 7.81 26.8 7.81 26.19L7.81 12.58L7.81 12.58C7.81 11.75 8.48 11.08 9.3 11.08L16.54 11.08L16.54 27.69C16.54 27.69 9.24 27.69 9.21 27.69C8.94 27.66 8.88 27.64 8.69 27.56ZM22.57 46.27C22.57 46.28 22.58 46.29 22.56 46.3C22.55 46.32 22.54 46.32 22.53 46.32L16.34 46.32C16.32 46.32 16.31 46.31 16.3 46.3L10.58 30.37L16.86 30.37L22.57 46.27ZM45.63 36.02C45.63 36.04 45.63 36.05 45.6 36.07C45.57 36.09 45.55 36.08 45.53 36.07C37.36 31.46 28.51 28.7 19.19 27.84L19.19 10.93C28.51 10.07 37.36 7.3 45.53 2.7C45.55 2.69 45.57 2.68 45.6 2.7C45.63 2.71 45.63 2.73 45.63 2.75L45.63 36.02ZM48.29 24.38L48.29 14.39C50.6 14.86 52.34 16.92 52.34 19.38C52.34 21.85 50.6 23.91 48.29 24.38Z" />
				</g>
			</g>
		</g>
	</g>
</svg>