<svg xmlns="http://www.w3.org/2000/svg" viewBox="0 0 60 59" width="60" height="59">
	<style>
		tspan { white-space:pre }
		.shp0 { fill: #000000 } 
	</style>
	<g id="3 - program section">
		<g id="program section">
			<g id="block 1">
				<g id="icon">
					<path id="Forma 1" class="shp0" d="M36.72 21.89C36.09 21.89 35.57 22.41 35.57 23.05C35.57 23.68 36.09 24.2 36.72 24.2C37.36 24.2 37.87 23.68 37.87 23.05C37.87 22.41 37.36 21.89 36.72 21.89ZM58.65 51.13L43.27 35.75C45.77 31.98 47.09 27.6 47.09 23.05C47.09 10.34 36.75 0 24.05 0C11.34 0 1 10.34 1 23.05C1 35.75 11.34 46.09 24.05 46.09C28.61 46.09 32.98 44.77 36.75 42.27L41 46.52C41 46.52 41 46.52 41 46.52L52.13 57.65C53 58.52 54.16 59 55.39 59C56.62 59 57.78 58.52 58.65 57.65C59.52 56.78 60 55.62 60 54.39C60 53.16 59.52 52 58.65 51.13ZM36.21 39.84C36.21 39.84 36.21 39.84 36.21 39.84C32.65 42.42 28.45 43.79 24.05 43.79C12.61 43.79 3.3 34.48 3.3 23.05C3.3 11.61 12.61 2.3 24.05 2.3C35.48 2.3 44.79 11.61 44.79 23.05C44.79 27.45 43.42 31.65 40.84 35.21C39.55 36.99 37.99 38.55 36.21 39.84ZM38.63 40.88C39.82 39.91 40.91 38.82 41.88 37.63L45.15 40.89C44.16 42.07 43.07 43.16 41.9 44.15L38.63 40.88ZM57.02 56.02C56.58 56.46 56.01 56.7 55.39 56.7C54.78 56.7 54.2 56.46 53.76 56.02L43.53 45.79C44.7 44.79 45.79 43.7 46.79 42.53L57.02 52.76C57.46 53.2 57.7 53.77 57.7 54.39C57.7 55.01 57.46 55.58 57.02 56.02ZM24.05 4.61C13.88 4.61 5.61 12.88 5.61 23.05C5.61 33.21 13.88 41.48 24.05 41.48C34.21 41.48 42.48 33.21 42.48 23.05C42.48 12.88 34.21 4.61 24.05 4.61ZM24.05 39.18C15.15 39.18 7.91 31.94 7.91 23.05C7.91 14.15 15.15 6.91 24.05 6.91C32.94 6.91 40.18 14.15 40.18 23.05C40.18 31.94 32.94 39.18 24.05 39.18ZM36.96 18.1C35.97 15.52 34.24 13.31 31.96 11.71C29.63 10.08 26.9 9.22 24.05 9.22C23.41 9.22 22.89 9.73 22.89 10.37C22.89 11.01 23.41 11.52 24.05 11.52C28.78 11.52 33.11 14.5 34.81 18.93C34.99 19.38 35.42 19.67 35.89 19.67C36.02 19.67 36.16 19.64 36.3 19.59C36.89 19.36 37.19 18.69 36.96 18.1Z" />
				</g>
			</g>
		</g>
	</g>
</svg>