<svg xmlns="http://www.w3.org/2000/svg" viewBox="0 0 12 12" width="12" height="12">
	<style>
		tspan { white-space:pre }
		.shp0 { fill: #000000 } 
	</style>
	<g id="2 - schedule">
		<g id="1">
			<path id="Forma 1" class="shp0" d="M11.88 8.68C11.76 8.55 11.57 8.5 11.4 8.56C10.92 8.72 10.41 8.8 9.86 8.8C7.26 8.8 5.15 6.83 5.15 4.4C5.15 2.94 5.92 1.58 7.21 0.76C7.36 0.67 7.43 0.5 7.39 0.34C7.35 0.18 7.21 0.06 7.03 0.04C6.83 0.01 6.63 0 6.43 0C2.88 0 0 2.69 0 6C0 9.31 2.88 12 6.43 12C8.68 12 10.73 10.93 11.91 9.15C12 9 11.99 8.82 11.88 8.68Z" />
		</g>
	</g>
</svg>