<svg xmlns="http://www.w3.org/2000/svg" viewBox="0 0 63 63" width="63" height="63">
	<style>
		tspan { white-space:pre }
		.shp0 { fill: #000000 } 
	</style>
	<g id="1 - header section">
		<g id="course info">
			<g id="1">
				<path id="icon" class="shp0" d="M29.05 43.91C28.82 43.68 28.5 43.55 28.18 43.55C27.85 43.55 27.54 43.68 27.31 43.91C27.08 44.14 26.95 44.46 26.95 44.78C26.95 45.11 27.08 45.43 27.31 45.65C27.54 45.88 27.85 46.02 28.18 46.02C28.5 46.02 28.82 45.88 29.05 45.65C29.28 45.43 29.41 45.11 29.41 44.78C29.41 44.46 29.28 44.14 29.05 43.91ZM52.93 6.64L40.42 6.64C39.74 6.64 39.19 7.19 39.19 7.87C39.19 8.55 39.74 9.1 40.42 9.1L52.93 9.1C53.46 9.1 53.89 9.53 53.89 10.06L53.89 19.32C53.89 20 54.45 20.55 55.12 20.55C55.8 20.55 56.36 20 56.36 19.32L56.36 10.06C56.36 8.18 54.82 6.64 52.93 6.64ZM36.8 7C36.57 6.77 36.25 6.64 35.93 6.64C35.61 6.64 35.29 6.77 35.06 7C34.83 7.23 34.7 7.55 34.7 7.87C34.7 8.2 34.83 8.52 35.06 8.74C35.29 8.97 35.61 9.11 35.93 9.11C36.25 9.11 36.57 8.97 36.8 8.74C37.03 8.52 37.16 8.2 37.16 7.87C37.16 7.55 37.03 7.23 36.8 7ZM52.55 39.66C54.11 38.12 55.09 35.98 55.09 33.62L55.09 24.61C55.09 23.93 54.54 23.38 53.86 23.38L44.91 23.38C41.2 23.38 38.18 26.4 38.18 30.11L38.18 33.62C38.18 35.96 39.14 38.09 40.68 39.62L32.73 39.62L32.73 37.11C32.73 32.43 29.21 28.56 24.68 28C25.58 26.9 26.12 25.49 26.12 23.96L26.12 18.91C26.12 18.86 26.11 18.81 26.11 18.77C26.11 18.68 26.12 18.59 26.12 18.5L26.12 15.3C26.12 14.63 25.56 14.07 24.88 14.07L18.45 14.07C15.59 14.07 13.26 16.4 13.26 19.26L13.26 20.48L13.26 21.5L13.26 23.96C13.26 25.49 13.8 26.9 14.69 28C10.16 28.56 6.64 32.43 6.64 37.11L6.64 39.62L2.46 39.62L2.46 10.06C2.46 9.53 2.89 9.1 3.42 9.1L4.88 9.1C5.56 9.1 6.11 8.55 6.11 7.87C6.11 7.19 5.56 6.64 4.88 6.64L3.42 6.64C1.53 6.64 0 8.18 0 10.06L0 46.54C0 48.42 1.53 49.95 3.42 49.95L22.15 49.95L22.15 55.64C19.04 55.96 16.61 58.58 16.61 61.77C16.61 62.45 17.16 63 17.84 63L61.77 63C62.45 63 63 62.45 63 61.77L63 51.04C63 45.07 58.39 40.15 52.55 39.66ZM40.64 33.62L40.64 30.11C40.64 27.75 42.56 25.84 44.91 25.84L52.63 25.84L52.63 33.62C52.63 36.93 49.94 39.62 46.63 39.62C43.33 39.62 40.64 36.93 40.64 33.62ZM15.72 19.26C15.72 17.76 16.94 16.54 18.45 16.54L23.65 16.54L23.65 18.5C23.65 19.48 22.86 20.27 21.88 20.27L15.72 20.27L15.72 19.26ZM15.72 22.73L21.88 22.73C22.52 22.73 23.12 22.59 23.65 22.34L23.65 23.96L23.65 23.96C23.65 26.15 21.87 27.93 19.69 27.93C17.5 27.93 15.72 26.15 15.72 23.96L15.72 22.73ZM21.12 30.39L21.12 30.39L19.69 31.82L18.25 30.39L21.12 30.39L21.12 30.39ZM9.11 37.11C9.11 33.74 11.6 30.94 14.84 30.46L18.82 34.43C19.06 34.68 19.37 34.8 19.69 34.8C20 34.8 20.32 34.68 20.56 34.43L24.53 30.46C27.77 30.94 30.27 33.74 30.27 37.11L30.27 39.62L9.11 39.62L9.11 37.11ZM30.27 60.54L19.28 60.54C19.79 59.1 21.16 58.07 22.77 58.07L30.27 58.07L30.27 60.54ZM30.27 51.04L30.27 55.61L24.61 55.61L24.61 49.95L30.32 49.95C30.29 50.31 30.27 50.67 30.27 51.04ZM3.42 47.49C2.89 47.49 2.46 47.07 2.46 46.54L2.46 42.08L34.61 42.08C32.87 43.46 31.54 45.34 30.83 47.49L3.42 47.49ZM60.54 55.61L51.13 55.61C50.45 55.61 49.9 56.16 49.9 56.84C49.9 57.52 50.45 58.07 51.13 58.07L60.54 58.07L60.54 60.54L32.73 60.54L32.73 51.04C32.73 46.11 36.72 42.11 41.64 42.08L45.28 42.08C45.29 42.08 45.3 42.08 45.31 42.08L51.58 42.08C56.52 42.08 60.54 46.1 60.54 51.04L60.54 55.61ZM19.71 0C19.03 0 18.48 0.55 18.48 1.23L18.48 7.87C18.48 8.55 19.03 9.11 19.71 9.11C20.39 9.11 20.94 8.55 20.94 7.87L20.94 1.23C20.94 0.55 20.39 0 19.71 0ZM30.14 4.83C29.66 4.35 28.88 4.35 28.4 4.83L26.24 6.99C25.76 7.47 25.76 8.25 26.24 8.73C26.48 8.97 26.8 9.09 27.11 9.09C27.43 9.09 27.74 8.97 27.98 8.73L30.14 6.57C30.62 6.09 30.62 5.31 30.14 4.83ZM13.15 7L10.97 4.82C10.49 4.34 9.71 4.34 9.23 4.82C8.75 5.3 8.75 6.08 9.23 6.56L11.41 8.74C11.65 8.98 11.97 9.1 12.28 9.1C12.6 9.1 12.91 8.98 13.15 8.74C13.64 8.26 13.64 7.48 13.15 7ZM47.5 55.97C47.28 55.74 46.96 55.61 46.63 55.61C46.31 55.61 45.99 55.74 45.76 55.97C45.54 56.2 45.4 56.52 45.4 56.84C45.4 57.16 45.54 57.48 45.76 57.71C45.99 57.94 46.31 58.07 46.63 58.07C46.96 58.07 47.28 57.94 47.5 57.71C47.73 57.48 47.87 57.16 47.87 56.84C47.87 56.52 47.73 56.2 47.5 55.97Z" />
			</g>
		</g>
	</g>
</svg>