<svg xmlns="http://www.w3.org/2000/svg" viewBox="0 0 14 15" width="14" height="15">
	<style>
		tspan { white-space:pre }
		.shp0 { fill: #000000 } 
	</style>
	<g id="2 - schedule">
		<g id="1">
			<path id="Forma 1" class="shp0" d="M13.95 9.57L12.47 7.5L13.95 5.42C14 5.35 14.01 5.27 13.99 5.18C13.96 5.09 13.91 5.04 13.82 5.01L11.42 4.2L11.42 1.64C11.42 1.55 11.39 1.48 11.31 1.42C11.23 1.37 11.15 1.36 11.08 1.39L8.68 2.18L7.2 0.1C7.15 0.03 7.08 0 6.99 0C6.89 0 6.82 0.03 6.77 0.1L5.29 2.18L2.89 1.39C2.82 1.36 2.74 1.37 2.66 1.42C2.58 1.48 2.55 1.55 2.55 1.64L2.55 4.2L0.15 5.01C0.06 5.04 0.01 5.09 -0.01 5.18C-0.04 5.27 -0.03 5.35 0.02 5.42L1.5 7.5L0.02 9.57C-0.03 9.64 -0.04 9.72 -0.01 9.82C0.01 9.9 0.06 9.95 0.15 9.98L2.55 10.79L2.55 13.35C2.55 13.44 2.58 13.51 2.66 13.57C2.74 13.62 2.82 13.63 2.89 13.6L5.29 12.81L6.77 14.89C6.83 14.96 6.9 15 6.99 15C7.07 15 7.14 14.96 7.2 14.89L8.68 12.81L11.08 13.6C11.15 13.63 11.23 13.62 11.31 13.57C11.39 13.51 11.42 13.44 11.42 13.35L11.42 10.79L13.82 9.98C13.91 9.95 13.96 9.9 13.99 9.82C14.01 9.72 14 9.64 13.95 9.57ZM11.34 9.37C11.09 9.96 10.76 10.48 10.33 10.91C9.91 11.34 9.41 11.68 8.82 11.94C8.24 12.19 7.63 12.32 6.99 12.32C6.34 12.32 5.73 12.19 5.15 11.94C4.57 11.68 4.06 11.34 3.64 10.91C3.21 10.48 2.88 9.96 2.63 9.37C2.38 8.77 2.25 8.15 2.25 7.5C2.25 6.84 2.38 6.22 2.63 5.62C2.88 5.03 3.21 4.52 3.64 4.08C4.06 3.65 4.57 3.31 5.15 3.05C5.73 2.8 6.34 2.67 6.99 2.67C7.63 2.67 8.24 2.8 8.82 3.05C9.41 3.31 9.91 3.65 10.33 4.08C10.76 4.52 11.09 5.03 11.34 5.62C11.59 6.22 11.72 6.84 11.72 7.5C11.72 8.15 11.59 8.77 11.34 9.37Z" />
		</g>
	</g>
</svg>