<svg xmlns="http://www.w3.org/2000/svg" viewBox="0 0 63 63" width="63" height="63">
	<style>
		tspan { white-space:pre }
		.shp0 { fill: #000000 } 
	</style>
	<g id="1 - header section">
		<g id="course info">
			<g id="2">
				<path id="icon" class="shp0" d="M61.14 19.55C59.97 18.89 58.59 18.91 57.44 19.6L49.71 24.26L49.71 23.37C49.71 20.41 47.61 17.94 44.83 17.35C46.96 15.54 48.32 12.85 48.32 9.84C48.32 4.41 43.91 0 38.48 0C33.06 0 28.64 4.41 28.64 9.84C28.64 12.78 29.94 15.41 31.98 17.22L16.41 17.22C18.46 15.41 19.75 12.78 19.75 9.84C19.75 4.41 15.34 0 9.91 0C4.48 0 0.07 4.41 0.07 9.84C0.07 13.01 1.58 15.84 3.92 17.64C1.63 18.54 0 20.77 0 23.37L0 41.09C0 44.48 2.76 47.24 6.15 47.24L6.44 47.24C7.12 47.24 7.67 46.69 7.67 46.01C7.67 45.33 7.12 44.78 6.44 44.78L6.15 44.78C4.12 44.78 2.46 43.13 2.46 41.09L2.46 25.83L14.48 25.83C15.16 25.83 15.72 25.28 15.72 24.6C15.72 23.92 15.16 23.37 14.48 23.37L2.46 23.37C2.46 21.34 4.12 19.68 6.15 19.68L43.56 19.68C45.59 19.68 47.25 21.34 47.25 23.37L47.25 41.09C47.25 43.13 45.59 44.78 43.56 44.78L15.38 44.78C14.7 44.78 14.15 45.33 14.15 46.01C14.15 46.69 14.7 47.24 15.38 47.24L17.32 47.24L9.64 60.54L1.3 60.54C0.62 60.54 0.07 61.09 0.07 61.77C0.07 62.45 0.62 63 1.3 63L48.48 63C49.16 63 49.71 62.45 49.71 61.77C49.71 61.09 49.16 60.54 48.48 60.54L40.07 60.54L32.39 47.24L43.56 47.24C46.95 47.24 49.71 44.48 49.71 41.09L49.71 38.72L57.44 43.38C58.03 43.74 58.68 43.92 59.33 43.92C59.95 43.92 60.57 43.76 61.14 43.44C62.3 42.78 63 41.58 63 40.24L63 22.74C63 21.4 62.3 20.21 61.14 19.55ZM9.91 17.22C5.84 17.22 2.53 13.91 2.53 9.84C2.53 5.77 5.84 2.46 9.91 2.46C13.98 2.46 17.29 5.77 17.29 9.84C17.29 13.91 13.98 17.22 9.91 17.22ZM38.48 17.22C34.41 17.22 31.1 13.91 31.1 9.84C31.1 5.77 34.41 2.46 38.48 2.46C42.55 2.46 45.86 5.77 45.86 9.84C45.86 13.91 42.55 17.22 38.48 17.22ZM12.48 60.54L20.16 47.24L22.72 47.24L15.05 60.54L12.48 60.54ZM17.89 60.54L24.85 48.47L31.82 60.54L17.89 60.54ZM37.23 60.54L34.66 60.54L26.99 47.24L29.55 47.24L37.23 60.54ZM59.93 41.29C59.74 41.4 59.25 41.6 58.71 41.28L49.71 35.85L49.71 27.14L58.71 21.71C59.25 21.38 59.74 21.59 59.93 21.69C60.11 21.79 60.54 22.11 60.54 22.74L60.54 40.24L60.54 40.24C60.54 40.88 60.11 41.19 59.93 41.29ZM20.11 23.37L20.1 23.37C19.42 23.37 18.87 23.92 18.87 24.6C18.87 25.28 19.42 25.83 20.1 25.83L20.11 25.83C20.79 25.83 21.34 25.28 21.34 24.6C21.34 23.92 20.79 23.37 20.11 23.37ZM9.91 6.03C7.81 6.03 6.1 7.74 6.1 9.84C6.1 11.94 7.81 13.65 9.91 13.65C12.01 13.65 13.72 11.94 13.72 9.84C13.72 7.74 12.01 6.03 9.91 6.03ZM9.91 11.19C9.16 11.19 8.56 10.59 8.56 9.84C8.56 9.09 9.16 8.49 9.91 8.49C10.66 8.49 11.26 9.09 11.26 9.84C11.26 10.59 10.66 11.19 9.91 11.19ZM38.48 6.03C36.38 6.03 34.67 7.74 34.67 9.84C34.67 11.94 36.38 13.65 38.48 13.65C40.58 13.65 42.3 11.94 42.3 9.84C42.3 7.74 40.58 6.03 38.48 6.03ZM38.48 11.19C37.73 11.19 37.13 10.59 37.13 9.84C37.13 9.09 37.73 8.49 38.48 8.49C39.23 8.49 39.83 9.09 39.83 9.84C39.83 10.59 39.23 11.19 38.48 11.19ZM11.94 45.14C11.71 44.91 11.4 44.78 11.07 44.78C10.75 44.78 10.43 44.91 10.2 45.14C9.98 45.37 9.84 45.69 9.84 46.01C9.84 46.34 9.98 46.65 10.2 46.88C10.43 47.11 10.75 47.24 11.07 47.24C11.4 47.24 11.71 47.11 11.94 46.88C12.17 46.65 12.3 46.34 12.3 46.01C12.3 45.69 12.17 45.37 11.94 45.14Z" />
			</g>
		</g>
	</g>
</svg>