<svg xmlns="http://www.w3.org/2000/svg" viewBox="0 0 298 7" width="298" height="7">
	<style>
		tspan { white-space:pre }
		.shp0 { fill: #000000 } 
	</style>
	<g id="5 - format">
		<g id="line">
			<path id="Ellipse 6" class="shp0" d="M3.47 0C5.38 0 6.94 1.57 6.94 3.5C6.94 5.43 5.38 7 3.47 7C1.55 7 0 5.43 0 3.5C0 1.57 1.55 0 3.47 0Z" />
			<path id="Ellipse 6 copy" class="shp0" d="M24.25 0C26.17 0 27.72 1.57 27.72 3.5C27.72 5.43 26.17 7 24.25 7C22.33 7 20.78 5.43 20.78 3.5C20.78 1.57 22.33 0 24.25 0Z" />
			<path id="Ellipse 6 copy 2" class="shp0" d="M45.05 0C46.95 0 48.5 1.57 48.5 3.5C48.5 5.43 46.95 7 45.05 7C43.14 7 41.59 5.43 41.59 3.5C41.59 1.57 43.14 0 45.05 0Z" />
			<path id="Ellipse 6 copy 3" class="shp0" d="M65.84 0C67.76 0 69.31 1.57 69.31 3.5C69.31 5.43 67.76 7 65.84 7C63.93 7 62.37 5.43 62.37 3.5C62.37 1.57 63.93 0 65.84 0Z" />
			<path id="Ellipse 6 copy 4" class="shp0" d="M86.62 0C88.54 0 90.09 1.57 90.09 3.5C90.09 5.43 88.54 7 86.62 7C84.71 7 83.16 5.43 83.16 3.5C83.16 1.57 84.71 0 86.62 0Z" />
			<path id="Ellipse 6 copy 5" class="shp0" d="M107.42 0C109.33 0 110.87 1.57 110.87 3.5C110.87 5.43 109.33 7 107.42 7C105.51 7 103.97 5.43 103.97 3.5C103.97 1.57 105.51 0 107.42 0Z" />
			<path id="Ellipse 6 copy 6" class="shp0" d="M127.34 0C129.26 0 130.81 1.57 130.81 3.5C130.81 5.43 129.26 7 127.34 7C125.43 7 123.87 5.43 123.87 3.5C123.87 1.57 125.43 0 127.34 0Z" />
			<path id="Ellipse 6 copy 7" class="shp0" d="M148.12 0C150.04 0 151.59 1.57 151.59 3.5C151.59 5.43 150.04 7 148.12 7C146.21 7 144.66 5.43 144.66 3.5C144.66 1.57 146.21 0 148.12 0Z" />
			<path id="Ellipse 6 copy 8" class="shp0" d="M168.92 0C170.83 0 172.37 1.57 172.37 3.5C172.37 5.43 170.83 7 168.92 7C167.01 7 165.47 5.43 165.47 3.5C165.47 1.57 167.01 0 168.92 0Z" />
			<path id="Ellipse 6 copy 9" class="shp0" d="M189.72 0C191.63 0 193.19 1.57 193.19 3.5C193.19 5.43 191.63 7 189.72 7C187.8 7 186.25 5.43 186.25 3.5C186.25 1.57 187.8 0 189.72 0Z" />
			<path id="Ellipse 6 copy 10" class="shp0" d="M211.37 0C213.29 0 214.84 1.57 214.84 3.5C214.84 5.43 213.29 7 211.37 7C209.46 7 207.91 5.43 207.91 3.5C207.91 1.57 209.46 0 211.37 0Z" />
			<path id="Ellipse 6 copy 10" class="shp0" d="M232.16 0C234.07 0 235.62 1.57 235.62 3.5C235.62 5.43 234.07 7 232.16 7C230.24 7 228.69 5.43 228.69 3.5C228.69 1.57 230.24 0 232.16 0Z" />
			<path id="Ellipse 6 copy 10" class="shp0" d="M252.95 0C254.86 0 256.41 1.57 256.41 3.5C256.41 5.43 254.86 7 252.95 7C251.05 7 249.5 5.43 249.5 3.5C249.5 1.57 251.05 0 252.95 0Z" />
			<path id="Ellipse 6 copy 10" class="shp0" d="M273.75 0C275.67 0 277.22 1.57 277.22 3.5C277.22 5.43 275.67 7 273.75 7C271.83 7 270.28 5.43 270.28 3.5C270.28 1.57 271.83 0 273.75 0Z" />
			<path id="Ellipse 6 copy 10" class="shp0" d="M294.53 0C296.45 0 298 1.57 298 3.5C298 5.43 296.45 7 294.53 7C292.62 7 291.06 5.43 291.06 3.5C291.06 1.57 292.62 0 294.53 0Z" />
		</g>
	</g>
</svg>