<svg xmlns="http://www.w3.org/2000/svg" viewBox="0 0 28 42" width="28" height="42">
	<style>
		tspan { white-space:pre }
		.shp0 { fill: #000000 } 
	</style>
	<g id="7 - contacts">
		<g id="contacts">
			<g id="icon">
				<path id="Forma 1" class="shp0" d="M14 0C6.28 0 0 6.39 0 14.25C0 17.41 1.83 22.21 5.75 29.37C8.42 34.25 11.09 38.38 11.2 38.55L13.12 41.52C13.32 41.82 13.65 42 14 42C14.35 42 14.68 41.82 14.88 41.52L16.8 38.55C16.91 38.38 19.56 34.29 22.25 29.37C26.17 22.22 28 17.41 28 14.25C28 6.39 21.72 0 14 0ZM20.42 28.33C17.76 33.18 15.16 37.2 15.05 37.37L14 38.99L12.95 37.37C12.84 37.2 10.22 33.14 7.58 28.33C3.94 21.69 2.1 16.96 2.1 14.25C2.1 7.57 7.44 2.14 14 2.14C20.56 2.14 25.9 7.57 25.9 14.25C25.9 16.96 24.06 21.69 20.42 28.33ZM14 6.26C9.72 6.26 6.24 9.81 6.24 14.16C6.24 18.52 9.72 22.07 14 22.07C18.28 22.07 21.76 18.52 21.76 14.16C21.76 9.81 18.28 6.26 14 6.26ZM14 19.93C10.88 19.93 8.34 17.34 8.34 14.16C8.34 10.98 10.88 8.4 14 8.4C17.12 8.4 19.66 10.98 19.66 14.16C19.66 17.34 17.12 19.93 14 19.93Z" />
			</g>
		</g>
	</g>
</svg>