<svg xmlns="http://www.w3.org/2000/svg" viewBox="0 0 26 25" width="26" height="25">
	<style>
		tspan { white-space:pre }
		.shp0 { fill: #000000 } 
	</style>
	<g id="7 - contacts">
		<g id="contacts">
			<g id="links">
				<g id="tel">
					<path id="Shape 1" class="shp0" d="M5.24 16.62C7.81 19.57 10.91 21.89 14.45 23.53C15.79 24.14 17.59 24.86 19.6 24.99C19.72 24.99 19.84 25 19.97 25C21.31 25 22.39 24.55 23.28 23.64C23.28 23.63 23.29 23.62 23.3 23.61C23.61 23.25 23.97 22.92 24.34 22.57C24.6 22.34 24.86 22.1 25.1 21.85C26.26 20.7 26.26 19.24 25.09 18.13L21.84 15.01C21.29 14.46 20.63 14.17 19.94 14.17C19.25 14.17 18.58 14.46 18.01 15.01L16.08 16.86C15.9 16.76 15.72 16.67 15.54 16.59C15.33 16.49 15.13 16.39 14.95 16.28C13.19 15.21 11.58 13.81 10.05 12.01C9.28 11.07 8.76 10.29 8.4 9.48C8.91 9.04 9.38 8.58 9.84 8.13C10.01 7.97 10.17 7.81 10.34 7.65C10.92 7.09 11.24 6.44 11.24 5.79C11.24 5.13 10.93 4.48 10.34 3.92L8.73 2.38C8.54 2.2 8.36 2.02 8.18 1.84C7.82 1.49 7.45 1.12 7.08 0.8C6.52 0.27 5.87 0 5.18 0C4.49 0 3.83 0.27 3.25 0.8L1.23 2.74C0.49 3.44 0.08 4.3 -0.01 5.29C-0.11 6.53 0.13 7.84 0.74 9.43C1.69 11.89 3.12 14.18 5.24 16.62ZM1.31 5.4C1.37 4.71 1.65 4.13 2.17 3.64L4.18 1.71C4.5 1.42 4.84 1.27 5.18 1.27C5.51 1.27 5.84 1.42 6.15 1.72C6.51 2.04 6.85 2.38 7.22 2.73C7.4 2.92 7.59 3.1 7.78 3.28L9.39 4.83C9.73 5.15 9.9 5.48 9.9 5.8C9.9 6.12 9.73 6.44 9.39 6.76C9.23 6.93 9.06 7.09 8.89 7.25C8.39 7.74 7.92 8.2 7.4 8.64C7.39 8.65 7.38 8.66 7.37 8.67C6.92 9.1 6.99 9.51 7.1 9.82C7.11 9.83 7.11 9.84 7.12 9.86C7.53 10.82 8.11 11.73 9.02 12.82C10.64 14.73 12.35 16.22 14.23 17.36C14.46 17.51 14.71 17.62 14.94 17.74C15.16 17.84 15.36 17.94 15.54 18.05C15.56 18.06 15.58 18.07 15.6 18.08C15.78 18.17 15.95 18.21 16.12 18.21C16.55 18.21 16.84 17.94 16.93 17.86L18.95 15.92C19.26 15.62 19.6 15.46 19.94 15.46C20.35 15.46 20.69 15.7 20.9 15.92L24.16 19.04C24.81 19.66 24.8 20.33 24.14 20.99C23.91 21.22 23.68 21.45 23.42 21.68C23.04 22.03 22.65 22.39 22.29 22.8C21.67 23.45 20.93 23.75 19.97 23.75C19.88 23.75 19.78 23.74 19.69 23.74C17.92 23.63 16.27 22.96 15.03 22.4C11.67 20.84 8.71 18.63 6.26 15.82C4.25 13.49 2.89 11.33 1.99 9.01C1.43 7.58 1.22 6.44 1.31 5.4Z" />
				</g>
			</g>
		</g>
	</g>
</svg>