<svg xmlns="http://www.w3.org/2000/svg" viewBox="0 0 29 19" width="29" height="19">
	<style>
		tspan { white-space:pre }
		.shp0 { fill: #000000 } 
	</style>
	<g id="7 - contacts">
		<g id="contacts">
			<g id="links">
				<g id="telegram">
					<path id="Shape 8" class="shp0" d="M28.99 0.55C28.99 0.54 29 0.53 29 0.52C29 0.48 29 0.45 28.99 0.41C28.99 0.4 28.99 0.39 28.99 0.38C28.98 0.34 28.97 0.29 28.94 0.25C28.94 0.24 28.93 0.23 28.93 0.23C28.93 0.22 28.93 0.22 28.93 0.22C28.93 0.22 28.93 0.22 28.93 0.22C28.92 0.21 28.92 0.21 28.92 0.2C28.89 0.16 28.85 0.12 28.81 0.09C28.8 0.09 28.79 0.08 28.78 0.08C28.74 0.05 28.71 0.03 28.67 0.02C28.65 0.02 28.63 0.01 28.61 0.01C28.58 0 28.54 0 28.5 0C28.49 0 28.47 0 28.45 0C28.44 0.01 28.42 0 28.41 0.01L0.38 5.71C0.18 5.75 0.03 5.91 0 6.11C-0.03 6.3 0.07 6.5 0.25 6.59L8.28 10.76L9.69 18.45C9.69 18.46 9.69 18.46 9.69 18.47C9.69 18.51 9.69 18.54 9.69 18.58C9.69 18.6 9.7 18.62 9.7 18.64C9.71 18.68 9.73 18.72 9.75 18.76C9.76 18.77 9.76 18.78 9.76 18.79C9.76 18.79 9.77 18.79 9.77 18.79C9.78 18.8 9.78 18.81 9.79 18.82C9.81 18.85 9.84 18.87 9.86 18.89C9.87 18.9 9.87 18.9 9.88 18.9C9.88 18.91 9.89 18.91 9.9 18.92C9.93 18.94 9.96 18.95 9.99 18.96C10 18.97 10.02 18.97 10.03 18.98C10.07 18.99 10.12 19 10.16 19C10.16 19 10.16 19 10.17 19L10.17 19L10.17 19C10.17 19 10.17 19 10.17 19C10.18 19 10.19 19 10.2 19C10.33 19 10.45 18.94 10.54 18.85L15.89 15.34L21.49 18.92C21.57 18.97 21.66 19 21.76 19C21.81 19 21.86 18.99 21.91 18.97C22.05 18.93 22.16 18.82 22.21 18.69L28.97 0.64C28.97 0.62 28.98 0.61 28.98 0.59C28.99 0.58 28.99 0.57 28.99 0.57C28.99 0.56 28.99 0.56 28.99 0.55ZM23.4 3.58L11.81 11.97C11.79 11.98 11.78 12 11.76 12.01C11.75 12.02 11.75 12.02 11.74 12.03C11.73 12.04 11.72 12.05 11.71 12.06C11.71 12.07 11.7 12.09 11.69 12.1C11.67 12.13 11.66 12.16 11.65 12.19C11.64 12.19 11.64 12.2 11.64 12.2C11.64 12.21 11.64 12.21 11.64 12.21L10.31 16.46L9.25 10.71L23.4 3.58ZM11.06 17.37L12.37 13.09L14.42 14.4L15.01 14.78L13.02 16.08L11.06 17.37ZM25.13 1.65L8.72 9.91L1.89 6.37L25.13 1.65ZM21.51 17.8L14.07 13.05L12.95 12.32L27.51 1.79L21.51 17.8Z" />
				</g>
			</g>
		</g>
	</g>
</svg>