<svg xmlns="http://www.w3.org/2000/svg" width="56" height="56"><style/><g id="3 - program section"><g id="program section"><g id="block 4"><g id="icon"><path id="Forma 1" d="M35.22 35.44c-.61 0-1.1.49-1.1 1.09 0 3.38-2.74 6.13-6.12 6.13s-6.13-2.75-6.13-6.13 2.75-6.12 6.13-6.12a1.095 1.095 0 000-2.19c-4.58 0-8.31 3.73-8.31 8.31 0 4.59 3.73 8.31 8.31 8.31s8.31-3.72 8.31-8.31c0-.6-.49-1.09-1.09-1.09zM28 32.81c-2.05 0-3.72 1.67-3.72 3.72 0 2.05 1.67 3.72 3.72 3.72 2.05 0 3.72-1.67 3.72-3.72 0-2.05-1.67-3.72-3.72-3.72zm0 5.25c-.84 0-1.53-.68-1.53-1.53 0-.84.69-1.53 1.53-1.53.84 0 1.53.69 1.53 1.53 0 .85-.69 1.53-1.53 1.53zm26.91 6.35c-.61 0-1.1.49-1.1 1.09V49c0 2.65-2.16 4.81-4.81 4.81H7c-2.65 0-4.81-2.16-4.81-4.81V32.81h13.45c-.36 1.19-.55 2.44-.55 3.72 0 7.12 5.79 12.91 12.91 12.91s12.91-5.79 12.91-12.91c0-1.28-.19-2.53-.55-3.72h13.45v3.12a1.095 1.095 0 002.19 0V24.06c0-3.86-3.14-7-7-7h-7.37l-.85-3.22a5.093 5.093 0 00-4.91-3.78H21.2c-2.3 0-4.31 1.56-4.9 3.78l-.85 3.22h-1.3v-.69a3.24 3.24 0 00-3.24-3.24H9.32c-1.79 0-3.25 1.45-3.25 3.24v.76C2.65 17.58 0 20.52 0 24.06V49c0 3.86 3.14 7 7 7h42c3.86 0 7-3.14 7-7v-3.5c0-.6-.49-1.09-1.09-1.09zM18.41 14.4a2.896 2.896 0 012.79-2.15h14.67c1.31 0 2.46.88 2.79 2.15l.71 2.66H17.71l.7-2.66zM8.26 16.37c0-.58.48-1.06 1.06-1.06h1.59c.58 0 1.05.48 1.05 1.06v.69h-3.7v-.69zm-6.07 7.69c0-2.65 2.16-4.81 4.81-4.81h42c2.65 0 4.81 2.16 4.81 4.81v6.57H39.48a12.853 12.853 0 00-6.42-5.97 1.09 1.09 0 10-.85 2.01c3.95 1.69 6.51 5.56 6.51 9.86 0 5.91-4.81 10.72-10.72 10.72-5.91 0-10.72-4.81-10.72-10.72 0-4.19 2.47-8.02 6.28-9.76a1.094 1.094 0 00-.91-1.99 12.972 12.972 0 00-6.12 5.85H2.19v-6.57zm7.92-2.4c-1.81 0-3.28 1.47-3.28 3.28 0 1.81 1.47 3.28 3.28 3.28 1.81 0 3.28-1.47 3.28-3.28 0-1.81-1.47-3.28-3.28-3.28zm0 4.37a1.095 1.095 0 11.01-2.19 1.095 1.095 0 01-.01 2.19zm37.45-2.19h-2.83c-.61 0-1.09.49-1.09 1.1 0 .6.48 1.09 1.09 1.09h2.83a1.095 1.095 0 000-2.19zM27.99 0c-.61 0-1.1.49-1.1 1.09v5.27a1.095 1.095 0 002.19 0V1.09c0-.6-.49-1.09-1.09-1.09zm10.48 4.63c-.43-.43-1.12-.43-1.55 0l-2.14 2.15a1.08 1.08 0 000 1.54c.21.22.49.32.77.32s.56-.1.77-.32l2.15-2.14c.43-.43.43-1.12 0-1.55zM21.24 6.81l-2.15-2.14c-.43-.43-1.12-.43-1.55 0a1.08 1.08 0 000 1.54l2.15 2.15c.21.21.49.32.77.32s.56-.11.78-.32c.42-.43.42-1.12 0-1.55zm7.53 17.14c-.2-.21-.48-.32-.77-.32-.29 0-.57.11-.77.32-.21.2-.32.48-.32.77 0 .29.11.57.32.77.2.21.48.32.77.32.29 0 .57-.11.77-.32.21-.2.32-.48.32-.77 0-.29-.11-.57-.32-.77zm26.91 16.13a1.097 1.097 0 00-1.87.77 1.107 1.107 0 001.1 1.1c.28 0 .56-.12.77-.33.2-.2.32-.48.32-.77 0-.29-.12-.57-.32-.77z" fill="#000"/></g></g></g></g></svg>