<svg xmlns="http://www.w3.org/2000/svg" width="61" height="60"><style/><g id="3 - program section"><g id="program section"><g id="block 2"><g id="открыть спойлер"><path id="Shape 1" d="M59.77 1.22c-.06-.52-.47-.93-.99-.99-4.67-.58-9.49-.07-13.93 1.45a31.335 31.335 0 00-11.89 7.39l-7.59 7.56-10.95 1.4c-.25.04-.48.15-.66.33L3.2 28.87c-.3.3-.41.74-.29 1.14.13.41.47.71.88.78l7.99 1.47 1.57 1.57-3.34 1.8c-.32.17-.53.48-.59.83-.05.36.07.71.33.97l12.67 12.61c.21.22.5.34.8.34.05 0 .11-.01.16-.02.36-.05.67-.26.84-.58l1.81-3.32 1.57 1.56 1.48 7.95c.08.42.38.75.78.88a1.136 1.136 0 001.14-.28l10.57-10.52c.17-.18.29-.41.32-.66l1.41-10.91 7.59-7.56c3.33-3.31 5.9-7.4 7.42-11.83 1.53-4.43 2.04-9.23 1.46-13.87zM11.95 29.99l-5.61-1.04 8.75-8.72 7.65-.98-10.79 10.74zm11 17.38L12.44 36.9l2.59-1.4 9.32 9.28-1.4 2.59zm16.73-2.65l-8.76 8.72-1.04-5.59 10.79-10.74-.99 7.61zm9.6-19.4L28.66 45.86 13.95 31.21l20.62-20.54c3-2.98 6.68-5.3 10.68-6.72.51 2.64 1.81 5.09 3.74 7.01 1.93 1.93 4.39 3.22 7.05 3.73a28.767 28.767 0 01-6.76 10.63zm7.44-12.81c-2.3-.39-4.45-1.49-6.12-3.15s-2.77-3.8-3.17-6.1c3.3-.88 6.77-1.19 10.18-.88.31 3.39 0 6.85-.89 10.13zM33.46 16.7c-2.69 2.68-2.69 7.04 0 9.73a6.92 6.92 0 004.89 2.01c1.77 0 3.54-.67 4.88-2.01 2.7-2.68 2.7-7.05 0-9.73-2.69-2.68-7.07-2.68-9.77 0zm8.16 8.12c-1.8 1.8-4.74 1.8-6.55 0-1.8-1.79-1.8-4.72 0-6.52.91-.9 2.09-1.35 3.28-1.35 1.18 0 2.37.45 3.27 1.35a4.593 4.593 0 010 6.52zM14.79 45.23c-.44-.44-1.16-.44-1.61 0l-9.77 9.73c-.44.45-.44 1.16 0 1.61a1.15 1.15 0 001.61 0l9.77-9.73c.45-.45.45-1.16 0-1.61zm1.51 3.1l-4.41 4.39c-.44.44-.44 1.16 0 1.6.23.22.52.33.81.33.29 0 .58-.11.8-.33l4.41-4.38c.44-.44.44-1.16 0-1.61-.45-.44-1.17-.44-1.61 0zm-5.95 6.39c-.47 0-.91.31-1.07.75-.16.46-.01.98.37 1.28.38.3.95.32 1.35.04.43-.3.61-.88.4-1.37-.17-.42-.6-.7-1.05-.7zm1.05.7c.03.07-.02-.07 0 0zm-4.27 2.04l-.6.6c-.45.45-.45 1.16 0 1.61.22.22.51.33.8.33.29 0 .58-.11.81-.33l.6-.61c.45-.44.45-1.16 0-1.6-.44-.44-1.16-.44-1.61 0zm-.82-9.98c-.44-.44-1.17-.44-1.61 0L.3 51.86c-.45.45-.45 1.16 0 1.61a1.15 1.15 0 001.61 0l4.4-4.39c.44-.44.44-1.16 0-1.6zm1.82-.44c.46-.11.81-.51.85-.98.05-.47-.2-.92-.62-1.13-.44-.22-.99-.13-1.33.23-.36.38-.42.97-.13 1.41-.01-.01-.01-.02 0 0 .02.03.02.02.01.01.27.39.76.58 1.22.46zm2.94-2.7l.61-.6c.44-.45.44-1.16 0-1.61-.45-.44-1.17-.44-1.61 0l-.61.61c-.44.44-.44 1.16 0 1.6a1.15 1.15 0 001.61 0z" fill="#000"/></g></g></g></g></svg>