<svg xmlns="http://www.w3.org/2000/svg" width="63" height="63"><style/><g id="1 - header section"><g id="course info"><g id="1"><path id="icon" d="M29.05 43.91c-.23-.23-.55-.36-.87-.36a1.225 1.225 0 00-1.23 1.23c0 .33.13.65.36.87.23.23.54.37.87.37.32 0 .64-.14.87-.37.23-.22.36-.54.36-.87 0-.32-.13-.64-.36-.87zM52.93 6.64H40.42a1.23 1.23 0 100 2.46h12.51c.53 0 .96.43.96.96v9.26a1.236 1.236 0 002.47 0v-9.26c0-1.88-1.54-3.42-3.43-3.42zM36.8 7c-.23-.23-.55-.36-.87-.36-.32 0-.64.13-.87.36-.23.23-.36.55-.36.87 0 .33.13.65.36.87.23.23.55.37.87.37.32 0 .64-.14.87-.37.23-.22.36-.54.36-.87 0-.32-.13-.64-.36-.87zm15.75 32.66a8.477 8.477 0 002.54-6.04v-9.01c0-.68-.55-1.23-1.23-1.23h-8.95c-3.71 0-6.73 3.02-6.73 6.73v3.51c0 2.34.96 4.47 2.5 6h-7.95v-2.51c0-4.68-3.52-8.55-8.05-9.11.9-1.1 1.44-2.51 1.44-4.04v-5.05c0-.05-.01-.1-.01-.14 0-.09.01-.18.01-.27v-3.2c0-.67-.56-1.23-1.24-1.23h-6.43c-2.86 0-5.19 2.33-5.19 5.19v4.7c0 1.53.54 2.94 1.43 4.04-4.53.56-8.05 4.43-8.05 9.11v2.51H2.46V10.06c0-.53.43-.96.96-.96h1.46a1.23 1.23 0 100-2.46H3.42C1.53 6.64 0 8.18 0 10.06v36.48c0 1.88 1.53 3.41 3.42 3.41h18.73v5.69c-3.11.32-5.54 2.94-5.54 6.13 0 .68.55 1.23 1.23 1.23h43.93c.68 0 1.23-.55 1.23-1.23V51.04c0-5.97-4.61-10.89-10.45-11.38zm-11.91-6.04v-3.51c0-2.36 1.92-4.27 4.27-4.27h7.72v7.78c0 3.31-2.69 6-6 6-3.3 0-5.99-2.69-5.99-6zM15.72 19.26c0-1.5 1.22-2.72 2.73-2.72h5.2v1.96c0 .98-.79 1.77-1.77 1.77h-6.16v-1.01zm0 3.47h6.16c.64 0 1.24-.14 1.77-.39v1.62c0 2.19-1.78 3.97-3.96 3.97-2.19 0-3.97-1.78-3.97-3.97v-1.23zm5.4 7.66l-1.43 1.43-1.44-1.43h2.87zM9.11 37.11a6.73 6.73 0 015.73-6.65l3.98 3.97a1.205 1.205 0 001.74 0l3.97-3.97c3.24.48 5.74 3.28 5.74 6.65v2.51H9.11v-2.51zm21.16 23.43H19.28a3.704 3.704 0 013.49-2.47h7.5v2.47zm0-9.5v4.57h-5.66v-5.66h5.71c-.03.36-.05.72-.05 1.09zM3.42 47.49c-.53 0-.96-.42-.96-.95v-4.46h32.15a11.536 11.536 0 00-3.78 5.41H3.42zm57.12 8.12h-9.41a1.23 1.23 0 100 2.46h9.41v2.47H32.73v-9.5c0-4.93 3.99-8.93 8.91-8.96h9.94c4.94 0 8.96 4.02 8.96 8.96v4.57zM19.71 0c-.68 0-1.23.55-1.23 1.23v6.64c0 .68.55 1.24 1.23 1.24.68 0 1.23-.56 1.23-1.24V1.23c0-.68-.55-1.23-1.23-1.23zm10.43 4.83c-.48-.48-1.26-.48-1.74 0l-2.16 2.16a1.231 1.231 0 001.74 1.74l2.16-2.16c.48-.48.48-1.26 0-1.74zM13.15 7l-2.18-2.18a1.231 1.231 0 00-1.74 1.74l2.18 2.18a1.235 1.235 0 001.74 0c.49-.48.49-1.26 0-1.74zM47.5 55.97c-.22-.23-.54-.36-.87-.36-.32 0-.64.13-.87.36-.22.23-.36.55-.36.87 0 .32.14.64.36.87.23.23.55.36.87.36.33 0 .65-.13.87-.36.23-.23.37-.55.37-.87 0-.32-.14-.64-.37-.87z" fill="#000"/></g></g></g></svg>