<svg xmlns="http://www.w3.org/2000/svg" width="14" height="15"><style/><g id="2 - schedule"><g id="1"><path id="Forma 1" d="M13.95 9.57L12.47 7.5l1.48-2.08c.05-.07.06-.15.04-.24a.243.243 0 00-.17-.17l-2.4-.81V1.64c0-.09-.03-.16-.11-.22-.08-.05-.16-.06-.23-.03l-2.4.79L7.2.1C7.15.03 7.08 0 6.99 0c-.1 0-.17.03-.22.1L5.29 2.18l-2.4-.79c-.07-.03-.15-.02-.23.03-.08.06-.11.13-.11.22V4.2l-2.4.81c-.09.03-.14.08-.16.17-.03.09-.02.17.03.24L1.5 7.5.02 9.57c-.05.07-.06.15-.03.25.02.08.07.13.16.16l2.4.81v2.56c0 .09.03.16.11.22.08.05.16.06.23.03l2.4-.79 1.48 2.08c.06.07.13.11.22.11.08 0 .15-.04.21-.11l1.48-2.08 2.4.79c.07.03.15.02.23-.03.08-.06.11-.13.11-.22v-2.56l2.4-.81c.09-.03.14-.08.17-.16.02-.1.01-.18-.04-.25zm-2.61-.2c-.25.59-.58 1.11-1.01 1.54-.42.43-.92.77-1.51 1.03-.58.25-1.19.38-1.83.38-.65 0-1.26-.13-1.84-.38-.58-.26-1.09-.6-1.51-1.03-.43-.43-.76-.95-1.01-1.54a4.809 4.809 0 010-3.75 4.9 4.9 0 011.01-1.54c.42-.43.93-.77 1.51-1.03.58-.25 1.19-.38 1.84-.38.64 0 1.25.13 1.83.38.59.26 1.09.6 1.51 1.03.43.44.76.95 1.01 1.54a4.82 4.82 0 010 3.75z" fill="#000"/></g></g></svg>