<svg xmlns="http://www.w3.org/2000/svg" width="26" height="25"><style/><g id="7 - contacts"><g id="contacts"><g id="links"><g id="tel"><path id="Shape 1" d="M5.24 16.62c2.57 2.95 5.67 5.27 9.21 6.91 1.34.61 3.14 1.33 5.15 1.46.12 0 .24.01.37.01 1.34 0 2.42-.45 3.31-1.36 0-.01.01-.02.02-.03.31-.36.67-.69 1.04-1.04.26-.23.52-.47.76-.72 1.16-1.15 1.16-2.61-.01-3.72l-3.25-3.12c-.55-.55-1.21-.84-1.9-.84s-1.36.29-1.93.84l-1.93 1.85c-.18-.1-.36-.19-.54-.27-.21-.1-.41-.2-.59-.31-1.76-1.07-3.37-2.47-4.9-4.27-.77-.94-1.29-1.72-1.65-2.53.51-.44.98-.9 1.44-1.35.17-.16.33-.32.5-.48.58-.56.9-1.21.9-1.86 0-.66-.31-1.31-.9-1.87L8.73 2.38c-.19-.18-.37-.36-.55-.54-.36-.35-.73-.72-1.1-1.04C6.52.27 5.87 0 5.18 0S3.83.27 3.25.8L1.23 2.74A3.9 3.9 0 00-.01 5.29c-.1 1.24.14 2.55.75 4.14.95 2.46 2.38 4.75 4.5 7.19zM1.31 5.4c.06-.69.34-1.27.86-1.76l2.01-1.93c.32-.29.66-.44 1-.44.33 0 .66.15.97.45.36.32.7.66 1.07 1.01.18.19.37.37.56.55l1.61 1.55c.34.32.51.65.51.97 0 .32-.17.64-.51.96-.16.17-.33.33-.5.49-.5.49-.97.95-1.49 1.39l-.03.03c-.45.43-.38.84-.27 1.15.01.01.01.02.02.04.41.96.99 1.87 1.9 2.96 1.62 1.91 3.33 3.4 5.21 4.54.23.15.48.26.71.38.22.1.42.2.6.31l.06.03c.18.09.35.13.52.13.43 0 .72-.27.81-.35l2.02-1.94c.31-.3.65-.46.99-.46.41 0 .75.24.96.46l3.26 3.12c.65.62.64 1.29-.02 1.95-.23.23-.46.46-.72.69-.38.35-.77.71-1.13 1.12-.62.65-1.36.95-2.32.95-.09 0-.19-.01-.28-.01-1.77-.11-3.42-.78-4.66-1.34a26.208 26.208 0 01-8.77-6.58c-2.01-2.33-3.37-4.49-4.27-6.81-.56-1.43-.77-2.57-.68-3.61z" fill="#000"/></g></g></g></g></svg>