<svg xmlns="http://www.w3.org/2000/svg" width="29" height="19"><style/><g id="7 - contacts"><g id="contacts"><g id="links"><g id="telegram"><path id="Shape 8" d="M28.99.55c0-.01.01-.02.01-.03 0-.04 0-.07-.01-.11V.38c-.01-.04-.02-.09-.05-.13 0-.01-.01-.02-.01-.02V.22c-.01-.01-.01-.01-.01-.02a.573.573 0 00-.11-.11c-.01 0-.02-.01-.03-.01a.3.3 0 00-.11-.06c-.02 0-.04-.01-.06-.01C28.58 0 28.54 0 28.5 0h-.05c-.01.01-.03 0-.04.01L.38 5.71c-.2.04-.35.2-.38.4-.03.19.07.39.25.48l8.03 4.17 1.41 7.69v.13c0 .02.01.04.01.06.01.04.03.08.05.12.01.01.01.02.01.03h.01c.01.01.01.02.02.03.02.03.05.05.07.07.01.01.01.01.02.01 0 .01.01.01.02.02.03.02.06.03.09.04.01.01.03.01.04.02.04.01.09.02.13.02h.04c.13 0 .25-.06.34-.15l5.35-3.51 5.6 3.58c.08.05.17.08.27.08.05 0 .1-.01.15-.03.14-.04.25-.15.3-.28L28.97.64c0-.02.01-.03.01-.05.01-.01.01-.02.01-.02V.55zM23.4 3.58l-11.59 8.39c-.02.01-.03.03-.05.04l-.02.02-.03.03c0 .01-.01.03-.02.04-.02.03-.03.06-.04.09-.01 0-.01.01-.01.01v.01l-1.33 4.25-1.06-5.75L23.4 3.58zM11.06 17.37l1.31-4.28 2.05 1.31.59.38-1.99 1.3-1.96 1.29zM25.13 1.65L8.72 9.91 1.89 6.37l23.24-4.72zM21.51 17.8l-7.44-4.75-1.12-.73L27.51 1.79l-6 16.01z" fill="#000"/></g></g></g></g></svg>