<svg xmlns="http://www.w3.org/2000/svg" width="46" height="59"><style/><g id="3 - program section"><g id="program section"><g id="block 3"><g id="icon"><path id="Forma 1" d="M42.27 6.44h-.52v-.89c0-1.88-1.5-3.4-3.27-3.4h-.01L7.61 0C5.75 0 4.24 1.53 4.24 3.4v3.04h-.51C1.67 6.44 0 8.13 0 10.21v4.81c0 2.08 1.67 3.77 3.73 3.77h.12L7.46 55.6c0 1.87 1.51 3.4 3.36 3.4h24.41c.47 0 .91-.1 1.31-.27 1.21-.51 2.06-1.7 2.05-3.01l3.62-36.93h.06c2.06 0 3.73-1.69 3.73-3.77v-4.81c0-2.08-1.67-3.77-3.73-3.77zM6.73 3.4c0-.49.39-.89.8-.89l30.86 2.15c.48 0 .88.4.88.89v.89H6.73V3.4zM38.7 28.78l-6.68 1.21c-2.26-2.67-5.49-4.18-8.98-4.18s-6.72 1.51-8.98 4.18l-6.7-1.21-1.01-9.99h33.36l-1.01 9.99zm-.22 2.59l-.96 9.88-6.53-1.22-.47.62c-1.79 2.41-4.52 3.79-7.48 3.79-2.96 0-5.69-1.38-7.48-3.79l-.46-.62-6.56 1.22-.96-9.88 7.52 1.36.46-.62c1.79-2.41 4.52-3.79 7.48-3.79 2.96 0 5.69 1.38 7.48 3.79l.46.62 7.5-1.36zm-3.25 25.12H10.82c-.12 0-.23-.03-.34-.08-.31-.14-.54-.48-.54-.94l-.02-.16-1.11-11.56 5.25-.97c2.26 2.66 5.49 4.17 8.98 4.17s6.72-1.51 8.98-4.17l5.23.97-1.14 11.85c0 .48-.4.89-.88.89zm8.28-41.47c0 .69-.56 1.25-1.24 1.25H3.73c-.69 0-1.24-.56-1.24-1.25v-4.81c0-.7.55-1.26 1.24-1.26h38.54c.68 0 1.24.56 1.24 1.26v4.81zM23 30.16c-3.77 0-6.84 2.82-6.84 6.28 0 3.47 3.07 6.28 6.84 6.28s6.84-2.81 6.84-6.28c0-3.46-3.07-6.28-6.84-6.28zm0 10.05c-2.4 0-4.35-1.69-4.35-3.77s1.95-3.77 4.35-3.77c2.4 0 4.35 1.69 4.35 3.77S25.4 40.21 23 40.21z" fill="#000"/></g></g></g></g></svg>