<svg xmlns="http://www.w3.org/2000/svg" width="55" height="49"><style/><g id="3 - program section"><g id="program section"><g id="block 5"><g id="icon"><path id="Shape 1" d="M48.29 11.67V2.75c0-.99-.5-1.87-1.34-2.37-.85-.5-1.86-.51-2.72-.02a62.96 62.96 0 01-26.4 7.99c-.07.01-8.53.05-8.53.05-2.12 0-3.88 1.61-4.12 3.69H3.45c-1.9 0-3.45 1.56-3.45 3.48v7.63c0 1.92 1.55 3.48 3.45 3.48h1.73c.18 1.5 1.13 2.75 2.45 3.34l6.17 17.19A2.718 2.718 0 0016.34 49h6.19c.88 0 1.71-.43 2.21-1.16s.63-1.66.33-2.49l-5.31-14.76c8.65.9 16.87 3.53 24.47 7.82.42.24.88.36 1.34.36.47 0 .95-.13 1.38-.39.84-.49 1.34-1.38 1.34-2.36v-8.93c3.78-.49 6.71-3.76 6.71-7.71 0-3.94-2.93-7.21-6.71-7.71zM5.15 24h-1.7c-.44 0-.79-.36-.79-.8v-7.63c0-.44.35-.8.79-.8h1.7V24zm3.54 3.56c-.52-.23-.88-.76-.88-1.37V12.58c0-.83.67-1.5 1.49-1.5h7.24v16.61H9.21c-.27-.03-.33-.05-.52-.13zm13.88 18.71c0 .01.01.02-.01.03-.01.02-.02.02-.03.02h-6.19c-.02 0-.03-.01-.04-.02l-5.72-15.93h6.28l5.71 15.9zm23.06-10.25c0 .02 0 .03-.03.05-.03.02-.05.01-.07 0a65.453 65.453 0 00-26.34-8.23V10.93c9.32-.86 18.17-3.63 26.34-8.23.02-.01.04-.02.07 0 .03.01.03.03.03.05v33.27zm2.66-11.64v-9.99c2.31.47 4.05 2.53 4.05 4.99 0 2.47-1.74 4.53-4.05 5z" fill="#000"/></g></g></g></g></svg>