<svg xmlns="http://www.w3.org/2000/svg" width="60" height="59"><style/><g id="3 - program section"><g id="program section"><g id="block 1"><g id="icon"><path id="Forma 1" d="M36.72 21.89c-.63 0-1.15.52-1.15 1.16 0 .63.52 1.15 1.15 1.15.64 0 1.15-.52 1.15-1.15 0-.64-.51-1.16-1.15-1.16zm21.93 29.24L43.27 35.75c2.5-3.77 3.82-8.15 3.82-12.7C47.09 10.34 36.75 0 24.05 0 11.34 0 1 10.34 1 23.05c0 12.7 10.34 23.04 23.05 23.04 4.56 0 8.93-1.32 12.7-3.82L41 46.52l11.13 11.13c.87.87 2.03 1.35 3.26 1.35s2.39-.48 3.26-1.35c.87-.87 1.35-2.03 1.35-3.26s-.48-2.39-1.35-3.26zM36.21 39.84a20.591 20.591 0 01-12.16 3.95c-11.44 0-20.75-9.31-20.75-20.74C3.3 11.61 12.61 2.3 24.05 2.3c11.43 0 20.74 9.31 20.74 20.75 0 4.4-1.37 8.6-3.95 12.16a20.753 20.753 0 01-4.63 4.63zm2.42 1.04c1.19-.97 2.28-2.06 3.25-3.25l3.27 3.26c-.99 1.18-2.08 2.27-3.25 3.26l-3.27-3.27zm18.39 15.14a2.293 2.293 0 01-3.26 0L43.53 45.79c1.17-1 2.26-2.09 3.26-3.26l10.23 10.23c.44.44.68 1.01.68 1.63 0 .62-.24 1.19-.68 1.63zM24.05 4.61c-10.17 0-18.44 8.27-18.44 18.44 0 10.16 8.27 18.43 18.44 18.43 10.16 0 18.43-8.27 18.43-18.43 0-10.17-8.27-18.44-18.43-18.44zm0 34.57c-8.9 0-16.14-7.24-16.14-16.13 0-8.9 7.24-16.14 16.14-16.14 8.89 0 16.13 7.24 16.13 16.14 0 8.89-7.24 16.13-16.13 16.13zM36.96 18.1a13.85 13.85 0 00-5-6.39 13.719 13.719 0 00-7.91-2.49c-.64 0-1.16.51-1.16 1.15 0 .64.52 1.15 1.16 1.15 4.73 0 9.06 2.98 10.76 7.41.18.45.61.74 1.08.74a1.156 1.156 0 001.07-1.57z" fill="#000"/></g></g></g></g></svg>