<svg xmlns="http://www.w3.org/2000/svg" width="63" height="63"><style/><g id="1 - header section"><g id="course info"><g id="2"><path id="icon" d="M61.14 19.55a3.634 3.634 0 00-3.7.05l-7.73 4.66v-.89c0-2.96-2.1-5.43-4.88-6.02 2.13-1.81 3.49-4.5 3.49-7.51 0-5.43-4.41-9.84-9.84-9.84-5.42 0-9.84 4.41-9.84 9.84 0 2.94 1.3 5.57 3.34 7.38H16.41a9.808 9.808 0 003.34-7.38C19.75 4.41 15.34 0 9.91 0S.07 4.41.07 9.84c0 3.17 1.51 6 3.85 7.8-2.29.9-3.92 3.13-3.92 5.73v17.72c0 3.39 2.76 6.15 6.15 6.15h.29a1.23 1.23 0 100-2.46h-.29c-2.03 0-3.69-1.65-3.69-3.69V25.83h12.02c.68 0 1.24-.55 1.24-1.23 0-.68-.56-1.23-1.24-1.23H2.46a3.7 3.7 0 013.69-3.69h37.41a3.7 3.7 0 013.69 3.69v17.72c0 2.04-1.66 3.69-3.69 3.69H15.38a1.23 1.23 0 100 2.46h1.94l-7.68 13.3H1.3a1.23 1.23 0 100 2.46h47.18a1.23 1.23 0 100-2.46h-8.41l-7.68-13.3h11.17c3.39 0 6.15-2.76 6.15-6.15v-2.37l7.73 4.66c.59.36 1.24.54 1.89.54.62 0 1.24-.16 1.81-.48a3.648 3.648 0 001.86-3.2v-17.5c0-1.34-.7-2.53-1.86-3.19zM9.91 17.22c-4.07 0-7.38-3.31-7.38-7.38s3.31-7.38 7.38-7.38 7.38 3.31 7.38 7.38-3.31 7.38-7.38 7.38zm28.57 0c-4.07 0-7.38-3.31-7.38-7.38s3.31-7.38 7.38-7.38 7.38 3.31 7.38 7.38-3.31 7.38-7.38 7.38zm-26 43.32l7.68-13.3h2.56l-7.67 13.3h-2.57zm5.41 0l6.96-12.07 6.97 12.07H17.89zm19.34 0h-2.57l-7.67-13.3h2.56l7.68 13.3zm22.7-19.25c-.19.11-.68.31-1.22-.01l-9-5.43v-8.71l9-5.43c.54-.33 1.03-.12 1.22-.02.18.1.61.42.61 1.05v17.5c0 .64-.43.95-.61 1.05zM20.11 23.37h-.01a1.23 1.23 0 100 2.46h.01a1.23 1.23 0 100-2.46zM9.91 6.03c-2.1 0-3.81 1.71-3.81 3.81s1.71 3.81 3.81 3.81 3.81-1.71 3.81-3.81-1.71-3.81-3.81-3.81zm0 5.16c-.75 0-1.35-.6-1.35-1.35 0-.75.6-1.35 1.35-1.35.75 0 1.35.6 1.35 1.35 0 .75-.6 1.35-1.35 1.35zm28.57-5.16c-2.1 0-3.81 1.71-3.81 3.81s1.71 3.81 3.81 3.81 3.82-1.71 3.82-3.81-1.72-3.81-3.82-3.81zm0 5.16c-.75 0-1.35-.6-1.35-1.35 0-.75.6-1.35 1.35-1.35.75 0 1.35.6 1.35 1.35 0 .75-.6 1.35-1.35 1.35zM11.94 45.14c-.23-.23-.54-.36-.87-.36-.32 0-.64.13-.87.36-.22.23-.36.55-.36.87 0 .33.14.64.36.87.23.23.55.36.87.36a1.225 1.225 0 001.23-1.23c0-.32-.13-.64-.36-.87z" fill="#000"/></g></g></g></svg>