<svg xmlns="http://www.w3.org/2000/svg" width="298" height="7"><style>.shp0{fill:#000}</style><g id="5 - format"><g id="line"><path id="Ellipse 6" class="shp0" d="M3.47 0c1.91 0 3.47 1.57 3.47 3.5S5.38 7 3.47 7C1.55 7 0 5.43 0 3.5S1.55 0 3.47 0z"/><path id="Ellipse 6 copy" class="shp0" d="M24.25 0c1.92 0 3.47 1.57 3.47 3.5S26.17 7 24.25 7c-1.92 0-3.47-1.57-3.47-3.5S22.33 0 24.25 0z"/><path id="Ellipse 6 copy 2" class="shp0" d="M45.05 0c1.9 0 3.45 1.57 3.45 3.5S46.95 7 45.05 7c-1.91 0-3.46-1.57-3.46-3.5S43.14 0 45.05 0z"/><path id="Ellipse 6 copy 3" class="shp0" d="M65.84 0c1.92 0 3.47 1.57 3.47 3.5S67.76 7 65.84 7c-1.91 0-3.47-1.57-3.47-3.5S63.93 0 65.84 0z"/><path id="Ellipse 6 copy 4" class="shp0" d="M86.62 0c1.92 0 3.47 1.57 3.47 3.5S88.54 7 86.62 7c-1.91 0-3.46-1.57-3.46-3.5S84.71 0 86.62 0z"/><path id="Ellipse 6 copy 5" class="shp0" d="M107.42 0c1.91 0 3.45 1.57 3.45 3.5S109.33 7 107.42 7c-1.91 0-3.45-1.57-3.45-3.5s1.54-3.5 3.45-3.5z"/><path id="Ellipse 6 copy 6" class="shp0" d="M127.34 0c1.92 0 3.47 1.57 3.47 3.5S129.26 7 127.34 7c-1.91 0-3.47-1.57-3.47-3.5s1.56-3.5 3.47-3.5z"/><path id="Ellipse 6 copy 7" class="shp0" d="M148.12 0c1.92 0 3.47 1.57 3.47 3.5S150.04 7 148.12 7c-1.91 0-3.46-1.57-3.46-3.5s1.55-3.5 3.46-3.5z"/><path id="Ellipse 6 copy 8" class="shp0" d="M168.92 0c1.91 0 3.45 1.57 3.45 3.5S170.83 7 168.92 7c-1.91 0-3.45-1.57-3.45-3.5s1.54-3.5 3.45-3.5z"/><path id="Ellipse 6 copy 9" class="shp0" d="M189.72 0c1.91 0 3.47 1.57 3.47 3.5S191.63 7 189.72 7c-1.92 0-3.47-1.57-3.47-3.5S187.8 0 189.72 0z"/><path id="Ellipse 6 copy 10" class="shp0" d="M211.37 0c1.92 0 3.47 1.57 3.47 3.5S213.29 7 211.37 7c-1.91 0-3.46-1.57-3.46-3.5s1.55-3.5 3.46-3.5zm20.79 0c1.91 0 3.46 1.57 3.46 3.5S234.07 7 232.16 7c-1.92 0-3.47-1.57-3.47-3.5s1.55-3.5 3.47-3.5zm20.79 0c1.91 0 3.46 1.57 3.46 3.5S254.86 7 252.95 7c-1.9 0-3.45-1.57-3.45-3.5s1.55-3.5 3.45-3.5zm20.8 0c1.92 0 3.47 1.57 3.47 3.5S275.67 7 273.75 7c-1.92 0-3.47-1.57-3.47-3.5s1.55-3.5 3.47-3.5zm20.78 0c1.92 0 3.47 1.57 3.47 3.5S296.45 7 294.53 7c-1.91 0-3.47-1.57-3.47-3.5s1.56-3.5 3.47-3.5z"/></g></g></svg>