<svg xmlns="http://www.w3.org/2000/svg" width="28" height="42"><style/><g id="7 - contacts"><g id="contacts"><g id="icon"><path id="Forma 1" d="M14 0C6.28 0 0 6.39 0 14.25c0 3.16 1.83 7.96 5.75 15.12 2.67 4.88 5.34 9.01 5.45 9.18l1.92 2.97c.2.3.53.48.88.48s.68-.18.88-.48l1.92-2.97c.11-.17 2.76-4.26 5.45-9.18C26.17 22.22 28 17.41 28 14.25 28 6.39 21.72 0 14 0zm6.42 28.33a159.49 159.49 0 01-5.37 9.04L14 38.99l-1.05-1.62c-.11-.17-2.73-4.23-5.37-9.04C3.94 21.69 2.1 16.96 2.1 14.25 2.1 7.57 7.44 2.14 14 2.14c6.56 0 11.9 5.43 11.9 12.11 0 2.71-1.84 7.44-5.48 14.08zM14 6.26c-4.28 0-7.76 3.55-7.76 7.9 0 4.36 3.48 7.91 7.76 7.91 4.28 0 7.76-3.55 7.76-7.91 0-4.35-3.48-7.9-7.76-7.9zm0 13.67c-3.12 0-5.66-2.59-5.66-5.77 0-3.18 2.54-5.76 5.66-5.76s5.66 2.58 5.66 5.76c0 3.18-2.54 5.77-5.66 5.77z" fill="#000"/></g></g></g></svg>