<svg xmlns="http://www.w3.org/2000/svg" width="32" height="43"><style/><g id="7 - contacts"><g id="contact-form"><g id="icon"><path id="Shape 5" d="M29.18 43H2.82C1.27 43 0 41.74 0 40.2V15.89c0-1.55 1.27-2.8 2.82-2.8h.94V4.67C3.76 2.1 5.88 0 8.47 0h15.06c2.59 0 4.71 2.1 4.71 4.67v8.42h.94c1.55 0 2.82 1.25 2.82 2.8V40.2c0 1.54-1.27 2.8-2.82 2.8zM26.35 4.67c0-1.54-1.26-2.8-2.82-2.8H8.47c-1.56 0-2.82 1.26-2.82 2.8v8.42h3.76V6.54c0-.51.42-.93.94-.93h11.3c.52 0 .94.42.94.93v6.55h3.76V4.67zM11.29 7.48v5.61h9.42V7.48h-9.42zm18.83 8.41c0-.52-.43-.93-.94-.93H2.82a.93.93 0 00-.94.93V40.2c0 .51.42.93.94.93h26.36c.51 0 .94-.42.94-.93V15.89zM18.35 29.28c-.44.26-.92.42-1.41.53v3.84h1.88c.52 0 .94.42.94.94 0 .51-.42.93-.94.93h-5.64c-.52 0-.94-.42-.94-.93 0-.52.42-.94.94-.94h1.88v-3.84c-.49-.1-.97-.27-1.41-.53a4.68 4.68 0 01-2.36-4.04c0-2.58 2.12-4.68 4.71-4.68s4.71 2.1 4.71 4.68c0 1.66-.91 3.21-2.36 4.04zM16 22.43c-1.56 0-2.82 1.26-2.82 2.81 0 1 .54 1.93 1.41 2.42.88.51 1.94.51 2.82 0 .87-.49 1.41-1.42 1.41-2.42 0-1.55-1.26-2.81-2.82-2.81z" fill="#000"/></g></g></g></svg>